# Blender v2.79 (sub 0) OBJ File: 'Bush.blend'
# www.blender.org
mtllib Bush.mtl
o Sphere_Sphere.001
v 0.000000 0.700000 0.000000
v 0.200000 0.100000 -0.000000
v 0.000000 0.100000 0.200000
v -0.000000 -0.100000 -0.000000
v -0.200000 0.100000 -0.000000
v 0.000000 0.100000 -0.200000
vn 0.6882 0.2294 -0.6882
vn 0.6882 0.2294 0.6882
vn 0.5774 -0.5774 -0.5774
vn 0.5774 -0.5774 0.5774
vn -0.5774 -0.5774 -0.5774
vn -0.5774 -0.5774 0.5774
vn -0.6882 0.2294 -0.6882
vn -0.6882 0.2294 0.6882
usemtl None
s off
f 6//1 1//1 2//1
f 1//2 3//2 2//2
f 6//3 2//3 4//3
f 2//4 3//4 4//4
f 6//5 4//5 5//5
f 4//6 3//6 5//6
f 6//7 5//7 1//7
f 5//8 3//8 1//8
